<?xml version="1.0" encoding="UTF-8"?>
<svg width="36px" height="48px" viewBox="0 0 36 48" version="1.1" xmlns="http://www.w3.org/2000/svg" xmlns:xlink="http://www.w3.org/1999/xlink">
    <!-- Generator: sketchtool 64 (101010) - https://sketch.com -->
    <title>E88248A3-5CAA-4745-814E-E57C3BA6EEE8</title>
    <desc>Created with sketchtool.</desc>
    <g id="Page-1" stroke="none" stroke-width="1" fill="none" fill-rule="evenodd">
        <g id="2.0.1---Travel-Assessment-Form-Confirmation---Mobile" transform="translate(-98.000000, -1155.000000)" fill="#002C71">
            <g id="Group-9-Copy" transform="translate(0.000000, 682.000000)">
                <g id="Group-8" transform="translate(15.000000, 168.000000)">
                    <g id="Group-7" transform="translate(29.000000, 195.000000)">
                        <g id="Group-5" transform="translate(1.000000, 110.000000)">
                            <g id="Health-Status-/-Negative" transform="translate(47.000000, -0.000000)">
                                <g id="icon_health_quarantine">
                                    <rect id="Rectangle" opacity="0" x="0" y="0" width="48" height="48"></rect>
                                    <path d="M37.5,6 L29.19375,6 C29.23125,5.75625 29.25,5.503125 29.25,5.25 C29.25,2.353125 26.896875,0 24,0 C21.103125,0 18.75,2.353125 18.75,5.25 C18.75,5.503125 18.76875,5.75625 18.80625,6 L10.5,6 C8.015625,6 6,8.015625 6,10.5 L6,43.5 C6,45.984375 8.015625,48 10.5,48 L37.5,48 C39.984375,48 42,45.984375 42,43.5 L42,10.5 C42,8.015625 39.984375,6 37.5,6 Z M24,3 C25.246875,3 26.25,4.003125 26.25,5.25 C26.25,6.496875 25.246875,7.5 24,7.5 C22.753125,7.5 21.75,6.496875 21.75,5.25 C21.75,4.003125 22.753125,3 24,3 Z M39,43.5 C39,44.325 38.325,45 37.5,45 L10.5,45 C9.675,45 9,44.325 9,43.5 L9,10.5 C9,9.675 9.675,9 10.5,9 L15,9 L15,10.875 C15,11.49375 15.50625,12 16.125,12 L31.875,12 C32.49375,12 33,11.49375 33,10.875 L33,9 L37.5,9 C38.325,9 39,9.675 39,10.5 L39,43.5 Z M32.25,27 L27,27 L27,21.75 C27,21.3375 26.6625,21 26.25,21 L21.75,21 C21.3375,21 21,21.3375 21,21.75 L21,27 L15.75,27 C15.3375,27 15,27.3375 15,27.75 L15,32.25 C15,32.6625 15.3375,33 15.75,33 L21,33 L21,38.25 C21,38.6625 21.3375,39 21.75,39 L26.25,39 C26.6625,39 27,38.6625 27,38.25 L27,33 L32.25,33 C32.6625,33 33,32.6625 33,32.25 L33,27.75 C33,27.3375 32.6625,27 32.25,27 Z" id="Shape" fill-rule="nonzero"></path>
                                </g>
                            </g>
                        </g>
                    </g>
                </g>
            </g>
        </g>
    </g>
</svg>