<?xml version="1.0" encoding="UTF-8"?>
<svg width="48px" height="42px" viewBox="0 0 48 42" version="1.1" xmlns="http://www.w3.org/2000/svg" xmlns:xlink="http://www.w3.org/1999/xlink">
    <!-- Generator: sketchtool 64 (101010) - https://sketch.com -->
    <title>3AA0AC1F-5FE5-4258-8990-EDD82DEA6F51</title>
    <desc>Created with sketchtool.</desc>
    <g id="Page-1" stroke="none" stroke-width="1" fill="none" fill-rule="evenodd">
        <g id="2.2.0---PHO-Submission-View" transform="translate(-625.000000, -146.000000)" fill="#002C71">
            <g id="Group-7-Copy-2" transform="translate(547.000000, 105.000000)">
                <g id="Group-5" transform="translate(78.000000, 39.000000)">
                    <g id="Group-2">
                        <g id="Plan-Status-/-Postive">
                            <g id="icon_isolation_fail">
                                <rect id="Rectangle" opacity="0" x="0" y="0" width="48" height="47"></rect>
                                <path d="M47.7893877,20.1493348 L25.8827429,2.85726878 L25.8827431,2.85726892 C24.7854859,1.98507708 23.2141708,1.98507708 22.1169135,2.8572686 L0.210268785,20.1493346 L0.210268826,20.1493346 C-0.0310500989,20.3380223 -0.0704625595,20.682536 0.122239748,20.9188275 C0.123792038,20.9207309 0.125357295,20.9226242 0.126935393,20.9245071 L1.31026754,22.3516411 L1.31026751,22.3516411 C1.50784814,22.5904522 1.86573278,22.6272126 2.10962504,22.4337482 C2.10983898,22.4335785 2.11005279,22.4334086 2.11026648,22.4332386 L5.33276326,19.8882238 L5.33276326,42.6766732 L5.33276326,42.6766734 C5.33276337,43.3977115 5.92971683,43.9822277 6.66609526,43.9822277 L41.3327273,43.9822277 L41.3327272,43.9822277 C42.0691065,43.9822277 42.6660592,43.3977115 42.6660592,42.6766734 C42.6660592,42.6766734 42.6660592,42.6766734 42.6660592,42.6766734 L42.6660592,19.8963837 L45.8993893,22.4495582 L45.8993893,22.4495582 C46.1433865,22.6431018 46.501367,22.6065887 46.6993885,22.3679611 L47.8818873,20.9400111 L47.8818873,20.9400111 C48.0687697,20.6937925 48.0282922,20.3477954 47.7893874,20.1493348 L47.7893877,20.1493348 Z M39.9993955,41.3711192 L7.99942749,41.3711192 L7.99942749,17.7830177 L23.6419118,5.42921065 L23.6419118,5.42921068 C23.8454833,5.2660164 24.1383397,5.2660164 24.3419111,5.42921063 L39.9993955,17.7895455 L39.9993955,41.3711192 Z" id="Shape" fill-rule="nonzero"></path>
                            </g>
                        </g>
                    </g>
                </g>
            </g>
        </g>
    </g>
</svg>